<svg xmlns="http://www.w3.org/2000/svg" width="880" height="148" viewBox="0 0 880 148" font-family="ui-sans-serif, system-ui, -apple-system, 'Segoe UI', sans-serif"><rect x="0.5" y="0.5" width="879" height="147" rx="12" fill="#161b22" stroke="#30363d"/><g transform="translate(28,26) scale(0.5833333333333334)" fill="none" stroke="#6e7681" stroke-width="1.40" stroke-linecap="round" stroke-linejoin="round"><path d="M4 19.5v-15A2.5 2.5 0 0 1 6.5 2H19a1 1 0 0 1 1 1v18a1 1 0 0 1-1 1H6.5a1 1 0 0 1 0-5H20"/></g><text x="50" y="37" font-family="ui-monospace, 'SF Mono', Menlo, Consolas, monospace" font-size="14" font-weight="500" fill="#f0f6fc">alexyunyun/BookManageSystem</text><text x="852" y="36" text-anchor="end" font-family="ui-monospace, 'SF Mono', Menlo, Consolas, monospace" font-size="11" letter-spacing="1.3" fill="#8b949e">PINNED</text><text x="28" y="66" font-family="ui-sans-serif, system-ui, -apple-system, 'Segoe UI', sans-serif" font-size="14" fill="#8b949e">SpringBoot + Vue 前后端分离的图书管理系统</text><circle cx="32" cy="100" r="4.5" fill="#f0f6fc"/><text x="42" y="104" font-family="ui-monospace, 'SF Mono', Menlo, Consolas, monospace" font-size="12" fill="#8b949e">Vue</text><g transform="translate(86.32,93) scale(0.5)" fill="none" stroke="#6e7681" stroke-width="1.40" stroke-linecap="round" stroke-linejoin="round"><polygon points="12 2 15.09 8.26 22 9.27 17 14.14 18.18 21.02 12 17.77 5.82 21.02 7 14.14 2 9.27 8.91 8.26 12 2"/></g><text x="103.32" y="104" font-family="ui-monospace, 'SF Mono', Menlo, Consolas, monospace" font-size="12" fill="#8b949e">18</text><g transform="translate(138.2,93) scale(0.5)" fill="none" stroke="#6e7681" stroke-width="1.40" stroke-linecap="round" stroke-linejoin="round"><circle cx="12" cy="18" r="3"/><circle cx="6" cy="6" r="3"/><circle cx="18" cy="6" r="3"/><path d="M18 9v1a2 2 0 0 1-2 2H8a2 2 0 0 1-2-2V9"/><path d="M12 12v3"/></g><text x="155.2" y="104" font-family="ui-monospace, 'SF Mono', Menlo, Consolas, monospace" font-size="12" fill="#8b949e">3</text></svg>